HIERARCHY
ROOT Hips
{
    OFFSET 0.000000 0.000000 0.000000
    CHANNELS 6 Xposition Yposition Zposition Zrotation Xrotation Yrotation
    JOINT Spine
    {
        OFFSET -0.000000 7.246840 0.000000
        CHANNELS 3 Zrotation Xrotation Yrotation
        JOINT Spine1
        {
            OFFSET -0.000000 20.289354 0.000000
            CHANNELS 3 Zrotation Xrotation Yrotation
            JOINT Neck
            {
                OFFSET -0.000000 20.206032 1.836912
                CHANNELS 3 Zrotation Xrotation Yrotation
                JOINT Head
                {
                    OFFSET -0.000000 12.372654 -1.767522
                    CHANNELS 3 Zrotation Xrotation Yrotation
                    End Site
                    {
                        OFFSET -0.000000 22.094025 0.000000
                    }
                }
            }
            JOINT LeftShoulder
            {
                OFFSET 3.465871 17.201674 -0.568930
                CHANNELS 3 Zrotation Xrotation Yrotation
                JOINT LeftArm
                {
                    OFFSET 14.070313 0.000000 0.000000
                    CHANNELS 3 Zrotation Xrotation Yrotation
                    JOINT LeftForeArm
                    {
                        OFFSET 26.549477 0.000000 0.000000
                        CHANNELS 3 Zrotation Xrotation Yrotation
                        JOINT LeftHand
                        {
                            OFFSET 18.880413 0.000000 0.000000
                            CHANNELS 3 Zrotation Xrotation Yrotation
                            End Site
                            {
                                OFFSET 13.256415 0.000000 0.000000
                            }
                        }
                    }
                }
            }
            JOINT RightShoulder
            {
                OFFSET -3.526370 17.201674 -0.568930
                CHANNELS 3 Zrotation Xrotation Yrotation
                JOINT RightArm
                {
                    OFFSET -14.070313 0.000000 0.000000
                    CHANNELS 3 Zrotation Xrotation Yrotation
                    JOINT RightForeArm
                    {
                        OFFSET -26.549477 0.000000 0.000000
                        CHANNELS 3 Zrotation Xrotation Yrotation
                        JOINT RightHand
                        {
                            OFFSET -18.880413 0.000000 0.000000
                            CHANNELS 3 Zrotation Xrotation Yrotation
                            End Site
                            {
                                OFFSET -13.256415 0.000000 0.000000
                            }
                        }
                    }
                }
            }
        }
    }
    JOINT LeftUpLeg
    {
        OFFSET 8.837609 0.000000 0.000000
        CHANNELS 3 Zrotation Xrotation Yrotation
        JOINT LeftLeg
        {
            OFFSET -0.000000 -41.345005 0.000000
            CHANNELS 3 Zrotation Xrotation Yrotation
            JOINT LeftFoot
            {
                OFFSET -0.000000 -35.500874 0.000000
                CHANNELS 3 Zrotation Xrotation Yrotation
                JOINT LeftToeBase
                {
                    OFFSET -0.000000 -5.744446 13.256415
                    CHANNELS 3 Zrotation Xrotation Yrotation
                    End Site
                    {
                        OFFSET -0.000000 0.000000 3.535044
                    }
                }
            }
        }
    }
    JOINT RightUpLeg
    {
        OFFSET -8.837609 0.000000 0.000000
        CHANNELS 3 Zrotation Xrotation Yrotation
        JOINT RightLeg
        {
            OFFSET -0.000000 -41.345005 0.000000
            CHANNELS 3 Zrotation Xrotation Yrotation
            JOINT RightFoot
            {
                OFFSET -0.000000 -35.500874 0.000000
                CHANNELS 3 Zrotation Xrotation Yrotation
                JOINT RightToeBase
                {
                    OFFSET -0.000000 -5.744446 13.256415
                    CHANNELS 3 Zrotation Xrotation Yrotation
                    End Site
                    {
                        OFFSET -0.000000 0.000000 3.535044
                    }
                }
            }
        }
    }
}
MOTION
Frames:    11
Frame Time:    0.010000
2.934011    82.256721    -10.794116    2.511170    3.523749    -2.171055    -4.339064    -14.810870    -1.202588    1.149610    4.831835    -0.686963    2.405284    30.012720    -0.648633    -0.965274    -10.895050    -0.575931    18.437473    2.606339    8.032066    -32.282387    13.362570    -9.455506    6.401410    -12.007455    -12.980922    -23.503904    -11.191948    -0.497415    -15.691094    2.580771    11.670617    19.756407    8.520011    8.470087    -3.530779    -10.352321    3.969146    11.365740    -8.819375    14.317764    -3.239278    6.809865    1.265491    -2.323728    -10.059153    -5.708636    3.999037    1.060671    -3.099393    -0.536582    -2.830111    0.764350    -7.170907    3.947628    1.881914    8.215703    -7.454092    2.936999    -1.452132    -1.643930    -6.957632    -0.661175    -0.672920    1.194367    
2.922623    82.258423    -10.795707    2.514836    3.523500    -2.206987    -4.279120    -14.871922    -1.141161    1.048904    4.914677    -0.627441    2.482095    30.013742    -0.688139    -0.964288    -10.945808    -0.606597    18.480228    2.574671    7.916484    -32.309498    13.280580    -9.393586    6.384440    -11.950729    -12.951974    -23.496044    -11.129804    -0.540448    -15.648226    2.580954    11.632366    19.727249    8.644238    8.462955    -3.520482    -10.383730    3.981820    11.373627    -8.853118    14.285650    -3.230759    6.806995    1.290315    -2.338274    -10.054852    -5.698317    3.989723    1.068962    -3.099041    -0.423350    -2.542406    0.601965    -7.170468    3.940908    1.900788    8.218485    -7.463764    2.910840    -1.444741    -1.624253    -6.893338    -0.647083    -0.676709    1.168960    
2.912781    82.260696    -10.796392    2.522358    3.519642    -2.240308    -4.254994    -14.875584    -1.119710    0.980442    4.911843    -0.606005    2.595984    30.008963    -0.711073    -1.037915    -10.936828    -0.632572    18.550669    2.579672    7.904350    -32.389267    13.224186    -9.371826    6.405615    -11.952410    -12.920209    -23.459457    -11.130922    -0.541289    -15.583354    2.588039    11.659119    19.675442    8.726364    8.455727    -3.508845    -10.397174    3.980911    11.386285    -8.867672    14.263640    -3.226798    6.807640    1.313115    -2.347534    -10.038792    -5.752505    4.001054    1.054672    -3.038247    -0.530160    -2.813666    0.755124    -7.172022    3.935809    1.912276    8.217645    -7.458456    2.938447    -1.440000    -1.631908    -6.925094    -0.683849    -0.646919    1.234972    
2.899811    82.262222    -10.798174    2.520970    3.516293    -2.274053    -4.249544    -14.872747    -1.101713    0.983720    4.907808    -0.588987    2.596880    30.060488    -0.742390    -1.019946    -11.031867    -0.660143    18.544006    2.612620    7.921754    -32.396580    13.197364    -9.406491    6.403916    -11.927868    -12.879291    -23.448305    -11.110264    -0.534259    -15.583479    2.595941    11.672172    19.643051    8.783401    8.463161    -3.497300    -10.419016    3.973490    11.406769    -8.890714    14.233267    -3.213452    6.818623    1.314595    -2.371546    -10.051529    -5.652649    4.002177    1.053301    -3.123590    -0.535107    -2.829664    0.762248    -7.161141    3.930262    1.919601    8.219090    -7.457475    2.934995    -1.456428    -1.612029    -6.884607    -0.677391    -0.668865    1.223603    
2.888118    82.262985    -10.801802    2.518987    3.521972    -2.302280    -4.250965    -14.878295    -1.084558    1.034003    4.915986    -0.573731    2.488537    30.016531    -0.733405    -0.937853    -11.012499    -0.647203    18.487881    2.558773    7.906191    -32.382305    13.236279    -9.357594    6.407027    -11.949663    -12.858985    -23.488527    -11.139627    -0.500451    -15.653131    2.583421    11.654038    19.653143    8.836703    8.488035    -3.507371    -10.472716    3.967460    11.450705    -8.940246    14.221045    -3.200806    6.817568    1.335893    -2.364024    -10.070335    -5.691793    3.954036    1.073277    -3.070882    -0.422016    -2.532694    0.600032    -7.148080    3.913766    1.927593    8.217052    -7.453550    2.919201    -1.456159    -1.611600    -6.849243    -0.661017    -0.660504    1.193919    
2.877671    82.263397    -10.804181    2.520032    3.526357    -2.331045    -4.247780    -14.884923    -1.074124    1.031344    4.920654    -0.563465    2.530257    29.996927    -0.735595    -0.978797    -11.019606    -0.653931    18.492256    2.567775    7.931263    -32.383289    13.232812    -9.377397    6.404889    -11.946845    -12.822540    -23.519623    -11.147149    -0.460221    -15.642898    2.590234    11.661139    19.630102    8.797688    8.498583    -3.501525    -10.517416    3.985475    11.447893    -8.986253    14.210197    -3.199783    6.828027    1.337552    -2.357700    -10.094639    -5.679511    3.938254    1.073613    -3.066890    -0.431994    -2.544219    0.614262    -7.134515    3.899344    1.913737    8.203294    -7.447289    2.947845    -1.457263    -1.606836    -6.838890    -0.667189    -0.663411    1.205104    
2.864904    82.263908    -10.807841    2.514461    3.529530    -2.354031    -4.242096    -14.883078    -1.061777    1.034227    4.917637    -0.551951    2.534636    29.973707    -0.729766    -0.961504    -11.018913    -0.643767    18.511009    2.541210    7.925094    -32.406338    13.251388    -9.341653    6.399426    -11.967362    -12.806580    -23.527182    -11.172736    -0.442867    -15.637265    2.588308    11.656642    19.617901    8.762115    8.495501    -3.518148    -10.535803    3.965122    11.532369    -8.987796    14.274153    -3.191089    6.834673    1.348117    -2.336148    -10.120200    -5.729613    3.923834    1.081108    -2.987426    -0.427793    -2.523581    0.608210    -7.117967    3.889401    1.929801    8.200143    -7.446964    2.942095    -1.446136    -1.605416    -6.841924    -0.677791    -0.625205    1.223742    
2.854631    82.263412    -10.811563    2.509821    3.538690    -2.368827    -4.237831    -14.887227    -1.057601    1.043148    4.911466    -0.548490    2.529433    29.967945    -0.723664    -0.941775    -11.039112    -0.633843    18.516171    2.600887    7.965439    -32.425919    13.190809    -9.399117    6.417592    -11.990928    -12.783411    -23.579636    -11.200840    -0.416429    -15.643739    2.586003    11.659060    19.607384    8.725914    8.493979    -3.529462    -10.579376    3.965945    11.587288    -9.022707    14.289657    -3.185847    6.833041    1.350512    -2.327723    -10.137242    -5.706232    3.936431    1.088168    -3.006642    -0.439643    -2.522604    0.625054    -7.102890    3.876877    1.915851    8.199772    -7.450737    2.960297    -1.470660    -1.593355    -6.822618    -0.656081    -0.655855    1.184945    
2.843798    82.263680    -10.817559    2.505929    3.550312    -2.381407    -4.225143    -14.888095    -1.053443    1.006575    4.889804    -0.544243    2.622765    30.009966    -0.736624    -0.992942    -11.112033    -0.646426    18.572086    2.595458    7.946809    -32.470684    13.171914    -9.331973    6.416358    -12.015776    -12.808061    -23.583845    -11.227471    -0.401999    -15.594148    2.602108    11.679160    19.580526    8.662843    8.469400    -3.545706    -10.621360    3.969328    11.629354    -9.056915    14.309758    -3.180327    6.829116    1.344322    -2.334727    -10.153106    -5.622547    3.927248    1.092127    -3.055780    -0.436613    -2.534520    0.620793    -7.088237    3.859578    1.909601    8.193857    -7.451890    2.952652    -1.488213    -1.582643    -6.803652    -0.663940    -0.658513    1.199171    
2.832931    82.264267    -10.821991    2.506409    3.556011    -2.385271    -4.236874    -14.883928    -1.057547    1.024522    4.876730    -0.547519    2.621025    30.008926    -0.734634    -0.977386    -11.129214    -0.641044    18.574509    2.603832    7.951502    -32.491798    13.144655    -9.297152    6.427241    -12.034794    -12.834828    -23.587700    -11.247566    -0.383660    -15.603406    2.602260    11.673852    19.573854    8.623872    8.470696    -3.553249    -10.653625    3.982039    11.627021    -9.091237    14.287559    -3.181625    6.824493    1.353205    -2.307330    -10.155440    -5.763181    3.904268    1.094596    -2.913832    -0.436716    -2.521359    0.620887    -7.082666    3.853982    1.897441    8.202187    -7.454827    2.963724    -1.488359    -1.584517    -6.798969    -0.670342    -0.650799    1.210633    
2.823278    82.265686    -10.828029    2.500580    3.569652    -2.383924    -4.236733    -14.889809    -1.059204    1.032297    4.869200    -0.549359    2.635766    29.993269    -0.730133    -0.970578    -11.130368    -0.633109    18.574389    2.610204    7.953982    -32.506413    13.060999    -9.270166    6.423044    -12.009576    -12.862650    -23.567812    -11.222862    -0.375881    -15.604337    2.612876    11.661212    19.553600    8.612307    8.461540    -3.548519    -10.674414    4.002028    11.519681    -9.128837    14.250741    -3.173827    6.811017    1.350103    -2.297784    -10.175263    -5.645206    3.923319    1.097648    -3.016476    -0.433849    -2.512825    0.616778    -7.068872    3.840165    1.873767    8.200784    -7.462731    2.962203    -1.485151    -1.570065    -6.779375    -0.675197    -0.644355    1.219314    
